<?xml version="1.0" encoding="UTF-8" standalone="no"?><svg xmlns:svg="http://www.w3.org/2000/svg" xmlns="http://www.w3.org/2000/svg" version="1.1" style="overflow:visible" viewBox="-250 -250 500 500" height="2000px" width="2000px"><rect fill-opacity="0" fill="rgb(0,0,0)" height="500" width="500" y="-250" x="-250" /><svg version="1.1" y="-250" x="-250" viewBox="-250 -250 500 500" height="500px" width="500px" style="overflow:visible"><g transform="rotate(0,0,0)" stroke-linejoin="round" fill="#fff"><path stroke-linecap="butt" stroke-linejoin="round" stroke-width="2" stroke-opacity="1" stroke="rgb(0,0,0)" fill="rgb(255,255,255)" d="m-62.2 128.774999s-4.32036 22.7313-11.3658 28.2253c-4.43045-7.52267-0.2337-31.3192-0.2337-31.3192c7.41183-4.92512 8.48092-0.89306 11.5995 3.09387z" /><path stroke-linecap="butt" stroke-linejoin="round" stroke-width="2" stroke-opacity="1" stroke="rgb(0,0,0)" fill="rgb(255,255,255)" d="m57.314 128.774999s4.32036 22.7313 11.3658 28.2253c4.43044-7.52267 0.2337-31.3192 0.2337-31.3192c-7.41184-4.92512-8.48094-0.89306-11.5995 3.09387z" /><path stroke-linecap="butt" stroke-linejoin="round" stroke-width="2" stroke-opacity="1" stroke="rgb(0,0,0)" fill="rgb(255,255,255)" d="m-26.316001-82.732l21.436 5.71754l-55.5229 206.269l-15.3313-4.089261l-0.0616-24.0781z" /><path stroke-linecap="butt" stroke-linejoin="round" stroke-width="2" stroke-opacity="1" stroke="rgb(0,0,0)" fill="rgb(255,255,255)" d="m21.43-82.732l-21.436 5.71754l55.5229 206.269l15.3313-4.089261l0.0616-24.0781z" /><path stroke-linecap="butt" stroke-linejoin="round" stroke-width="2" stroke-opacity="1" stroke="rgb(0,0,0)" fill="rgb(255,255,255)" d="m75.207 93.11a17.3206 17.2415 0 0 1-12.2475 21.1165a17.3206 17.2415 0 0 1-21.2133-12.1916a17.3206 17.2415 0 0 1 12.2475-21.1165a17.3206 17.2415 0 0 1 21.2133 12.1916z" /><path stroke-linecap="butt" stroke-linejoin="round" stroke-width="2" stroke-opacity="1" stroke="rgb(0,0,0)" fill="rgb(255,255,255)" d="m-2.443001-157c-3.76138 0.01228-7.5004 0.576318-11.0961 1.6755v45.6921h22.1921v-45.7185c-3.59701-1.09024-7.33601-1.64596-11.0961-1.64914z" /><path stroke-linecap="butt" stroke-linejoin="round" stroke="none" fill="rgb(255,255,255)" d="m-26.316001-114.541v31.8095c0 11.6258 5.26827 37.4266 23.8732 37.4266c18.6049 0 23.8732-25.8008 23.8732-37.4266v-31.8095z" /><path stroke-linecap="butt" stroke-linejoin="round" stroke="none" fill="rgb(0,0,0)" d="m9.886-75.742a12.329 12.2727 0 0 1-12.329 12.2727a12.329 12.2727 0 0 1-12.329-12.2727a12.329 12.2727 0 0 1 12.329-12.2727a12.329 12.2727 0 0 1 12.329 12.2727z" /><path stroke-linecap="butt" stroke-linejoin="round" stroke-width="2" stroke-opacity="1" stroke="rgb(0,0,0)" fill="none" d="m-26.316001-114.541v31.8095c0 11.6258 5.26827 37.4266 23.8732 37.4266c18.6049 0 23.8732-25.8008 23.8732-37.4266v-31.8095z" /></g></svg></svg>